<svg width="48" height="48" viewBox="0 0 48 48" fill="none" xmlns="http://www.w3.org/2000/svg">
<rect width="48" height="48" rx="12" fill="#FEF5E6"/>
<g clip-path="url(#clip0_2162_6677)">
<path fill-rule="evenodd" clip-rule="evenodd" d="M25.3942 14.2243L27.6635 19.2536C27.8702 19.7123 28.3155 20.0149 28.8182 20.0376L33.3582 20.2469C34.5969 20.4363 35.1035 21.9563 34.2275 22.8589L30.6675 26.6669L31.1035 32.8656C31.3102 34.1416 29.9649 35.0949 28.8382 34.4709L24.6475 32.1416C24.2449 31.9176 23.7555 31.9176 23.3529 32.1416L19.1622 34.4709C18.0355 35.0949 16.6902 34.1416 16.8969 32.8656L17.2929 27.2469C17.3182 26.8763 17.1902 26.5136 16.9369 26.2429L13.7729 22.8589C12.8969 21.9563 13.4035 20.4363 14.6435 20.2469L19.1822 20.0376C19.6849 20.0149 20.1302 19.7123 20.3369 19.2536L22.6062 14.2243C23.1609 13.0363 24.8395 13.0363 25.3942 14.2243Z" stroke="#E27F6C" stroke-width="2.8" stroke-linecap="round" stroke-linejoin="round"/>
</g>
<defs>
<clipPath id="clip0_2162_6677">
<rect width="32" height="32" fill="white" transform="translate(8 8)"/>
</clipPath>
</defs>
</svg>
