<svg width="48" height="48" viewBox="0 0 48 48" fill="none" xmlns="http://www.w3.org/2000/svg">
<rect width="48" height="48" rx="12" fill="#FEF5E6"/>
<g clip-path="url(#clip0_2160_692)">
<path fill-rule="evenodd" clip-rule="evenodd" d="M24 33.3334C13.6 33.3334 12 31.0001 12 24.0001C12 17.0001 13.6 14.6667 24 14.6667C34.4 14.6667 36 17.0001 36 24.0001C36 31.0001 34.4 33.3334 24 33.3334Z" stroke="#E27F6C" stroke-width="2.8" stroke-linecap="round" stroke-linejoin="round"/>
<path d="M13.3333 20H34.6666" stroke="#E27F6C" stroke-width="2.8" stroke-linecap="round" stroke-linejoin="round"/>
<path d="M17.3333 26.6667H19.9999" stroke="#E27F6C" stroke-width="2.8" stroke-linecap="round" stroke-linejoin="round"/>
<path fill-rule="evenodd" clip-rule="evenodd" d="M25.3334 26.6666C25.3334 27.4039 24.7361 27.9999 24.0001 27.9999C23.2641 27.9999 22.6667 27.4039 22.6667 26.6666C22.6667 25.9293 23.2641 25.3333 24.0001 25.3333C24.7361 25.3333 25.3334 25.9293 25.3334 26.6666Z" fill="#E27F6C"/>
</g>
<defs>
<clipPath id="clip0_2160_692">
<rect width="32" height="32" fill="white" transform="translate(8 8)"/>
</clipPath>
</defs>
</svg>
